<?xml version="1.0" standalone="no"?>
<!DOCTYPE svg PUBLIC "-//W3C//DTD SVG 20010904//EN"
 "http://www.w3.org/TR/2001/REC-SVG-20010904/DTD/svg10.dtd">
<svg version="1.0" xmlns="http://www.w3.org/2000/svg"
 width="547.000000pt" height="547.000000pt" viewBox="0 0 547.000000 547.000000"
 preserveAspectRatio="xMidYMid meet">
<metadata>
Created by potrace 1.11, written by Peter Selinger 2001-2013
</metadata>
<g transform="translate(0.000000,547.000000) scale(0.100000,-0.100000)"
fill="#000000" stroke="none">
<path d="M600 4619 c-66 -39 -120 -118 -120 -176 0 -7 30 -37 68 -66 64 -53
561 -455 592 -480 8 -7 98 -80 200 -162 102 -82 194 -157 205 -167 11 -9 105
-85 208 -168 179 -144 187 -153 174 -173 -9 -13 -32 -25 -68 -32 -56 -11 -105
-37 -127 -67 -11 -15 -19 -12 -92 35 -109 71 -196 127 -640 412 -212 136 -436
280 -498 321 -62 41 -116 74 -121 74 -5 0 -11 3 -13 8 -1 4 -40 31 -86 61
l-84 53 -39 -28 c-48 -33 -79 -82 -94 -148 l-12 -51 31 -19 c34 -21 463 -267
536 -308 25 -14 99 -56 165 -95 66 -38 127 -72 135 -76 8 -5 24 -13 35 -20 62
-37 459 -264 567 -324 l68 -37 -35 -36 c-40 -41 -65 -96 -65 -143 0 -25 -9
-42 -34 -66 -19 -19 -40 -53 -47 -77 l-13 -43 -85 1 c-122 0 -143 -1 -138 -9
3 -5 7 -35 11 -68 13 -122 51 -284 100 -417 37 -102 125 -291 138 -296 4 -2 8
-8 8 -13 0 -20 78 -136 188 -278 58 -75 256 -263 356 -338 522 -392 1207 -529
1856 -372 156 38 332 103 483 181 134 69 229 132 391 258 29 22 226 219 264
262 58 68 180 253 233 354 103 196 168 394 199 609 10 66 17 122 15 124 -3 2
-55 4 -117 5 l-112 1 -10 33 c-13 48 -75 112 -126 133 -25 9 -44 22 -42 28 1
7 -3 31 -9 55 -18 72 -92 136 -170 145 -4 1 -9 15 -13 33 -7 34 -73 103 -114
119 -26 10 -95 14 -121 8 -7 -2 -22 12 -33 31 -45 79 -100 112 -182 111 -48 0
-54 2 -70 30 -10 17 -39 44 -63 59 -39 25 -54 29 -109 26 -34 -1 -70 -9 -79
-16 -14 -12 -18 -12 -25 1 -53 93 -89 124 -161 137 -24 5 -57 5 -73 1 -21 -6
-33 -3 -48 11 -61 57 -158 68 -231 28 -42 -24 -45 -24 -55 -7 -23 37 -98 70
-156 70 -60 0 -100 -16 -146 -61 -16 -16 -32 -25 -35 -21 -11 19 -79 42 -124
43 -52 0 -101 -20 -142 -59 -23 -21 -30 -23 -49 -13 -14 7 -48 11 -85 8 -50
-3 -70 -10 -100 -33 -33 -25 -46 -28 -96 -26 -68 3 -126 -22 -161 -70 -14 -18
-30 -29 -43 -28 -45 5 -97 -15 -139 -52 l-44 -39 -69 61 c-100 91 -224 203
-237 214 -6 6 -42 37 -80 70 -38 33 -83 74 -101 90 -17 17 -62 57 -100 90 -38
33 -76 67 -85 75 -8 8 -94 85 -190 170 -96 85 -180 159 -186 165 -6 5 -44 39
-84 75 -40 36 -88 79 -105 95 -17 17 -56 51 -86 76 -30 26 -79 69 -109 97 -30
29 -57 52 -60 52 -3 0 -21 -9 -40 -21z"/>
</g>
</svg>
